<svg xmlns="http://www.w3.org/2000/svg" viewBox="0 0 512 512">
  <defs>
    <linearGradient id="bg" x1="80" y1="60" x2="430" y2="460" gradientUnits="userSpaceOnUse">
      <stop stop-color="#0068ff"/>
      <stop offset="1" stop-color="#18b891"/>
    </linearGradient>
  </defs>
  <rect width="512" height="512" rx="112" fill="url(#bg)"/>
  <path fill="#fff" d="M104 169c0-31 25-56 56-56h192c31 0 56 25 56 56v124c0 31-25 56-56 56h-76l-78 58c-14 10-34 1-34-17v-41h-4c-31 0-56-25-56-56V169z"/>
  <path fill="#0068ff" d="M168 208c0-13 10-23 23-23h130c13 0 23 10 23 23s-10 23-23 23H191c-13 0-23-10-23-23zm0 74c0-13 10-23 23-23h82c13 0 23 10 23 23s-10 23-23 23h-82c-13 0-23-10-23-23z"/>
</svg>
